<svg xmlns="http://www.w3.org/2000/svg" id="Layer_1" width="800" height="800" data-name="Layer 1" viewBox="0 0 24 24"><defs><style>.cls-1{fill:none;stroke:#020202;stroke-miterlimit:10;stroke-width:1.91px}</style></defs><path d="M22.5 18.2a2.37 2.37 0 0 0-1-1.94 2 2 0 0 0 .06-.44 1.91 1.91 0 1 0-3.45 1.12 2.35 2.35 0 0 0 0 2.53 1.91 1.91 0 1 0 3.45 1.12 2 2 0 0 0-.06-.44 2.38 2.38 0 0 0 1-1.95Zm-21 0a2.37 2.37 0 0 1 1-1.94 2 2 0 0 1-.06-.44 1.91 1.91 0 1 1 3.46 1.12 2.35 2.35 0 0 1 0 2.53 1.91 1.91 0 1 1-3.45 1.12 2 2 0 0 1 .06-.44A2.38 2.38 0 0 1 1.5 18.2Z" class="cls-1"/><path d="M4.36 13.91V9.14A7.64 7.64 0 0 1 12 1.5a7.64 7.64 0 0 1 7.64 7.64v4.77" class="cls-1"/></svg>