<svg xmlns="http://www.w3.org/2000/svg" width="500" height="500" version="1.0"><style>@media (prefers-color-scheme:dark){.g{fill:#fff}}</style><g class="g"><path d="M235 50.7c-26.9 2.7-57.1 11.3-80.5 22.8C95.7 102.4 60.9 154.1 51.8 226c-1.7 13.5-1.7 63.1 0 80 4.3 42.2 13.7 72.9 27.1 88.1 4 4.5 12.3 9.2 18.9 10.5 4.3.9 7.6-2.6 6.8-6.9-.8-5-2.4-17.2-3.6-28.7-1.9-18.2-8.1-53.3-9.8-55.9-1-1.3-2.4-3.4-3.3-4.8-.9-1.3-2.5-6.1-3.5-10.6-1.6-6.9-1.9-12.2-1.9-33.7 0-24 .2-26.2 2.8-38.5C99.5 159.2 138 111.6 191.6 94.1c17.6-5.7 25.8-6.6 58.9-6.6 32.4 0 38.2.6 56.5 6.2 53.3 16 93.5 65.2 107.7 131.8 2.6 12.3 2.8 14.5 2.8 38.5 0 21.5-.3 26.8-1.9 33.7-1 4.5-2.6 9.3-3.5 10.6-.9 1.4-2.3 3.5-3.3 4.8-1.7 2.6-7.9 37.7-9.8 55.9-1.2 11.5-2.8 23.7-3.6 28.7-.8 4.3 2.5 7.8 6.8 6.9 6.6-1.3 14.9-6 18.9-10.5 13.4-15.2 22.8-45.9 27.1-88.1 1.6-16.7 1.7-67.7 0-80-8.6-64-35-109.6-81.2-140.2-37.1-24.5-92.1-39.2-132-35.1"/><path d="M124.5 263.3c-13.8 4.6-24 14.6-26.5 26-1 4.7-.3 11.3 7.4 66.1 7.9 55.5 8.8 61.3 11.3 65.8 4.8 8.9 15.1 15.7 26.7 17.9 20 3.6 38.1-11.2 37.9-31.1-.1-7.9-16-119.6-17.9-125.2-2-6.1-9.3-14.2-15.8-17.5-6.1-3.1-16.9-4-23.1-2m233.5-.4c-9.5 3.1-18.7 11.7-21.4 19.9-.8 2.6-3.8 20.7-6.5 40.2-2.8 19.5-6.6 46.8-8.6 60.7-3 21.7-3.4 25.9-2.4 30.5 3.6 17.2 19.9 28.1 37.5 24.9 11.6-2.2 21.9-9 26.7-17.9 2.5-4.5 3.4-10.3 11.3-65.8 7.7-54.8 8.4-61.4 7.4-66.1-3.1-14.2-18.5-26.2-34.4-26.9-3.9-.2-8.2 0-9.6.5"/></g></svg>