<svg width="80" height="17" viewBox="0 0 80 17" fill="none" xmlns="http://www.w3.org/2000/svg">
<path d="M5.054 16.171C3.534 16.171 2.46367 15.7213 1.843 14.822C1.22233 13.91 0.912 12.656 0.912 11.06V5.626C0.912 3.94133 1.216 2.662 1.824 1.788C2.432 0.913999 3.50867 0.476999 5.054 0.476999C6.43467 0.476999 7.42267 0.850666 8.018 1.598C8.626 2.34533 8.93 3.44733 8.93 4.904V6.12H6.897V5.037C6.897 4.32767 6.86533 3.783 6.802 3.403C6.73867 3.023 6.574 2.719 6.308 2.491C6.05467 2.263 5.643 2.149 5.073 2.149C4.49033 2.149 4.05333 2.27567 3.762 2.529C3.48333 2.76967 3.29967 3.11167 3.211 3.555C3.12233 3.98567 3.078 4.56833 3.078 5.303V11.402C3.078 12.1873 3.14133 12.8017 3.268 13.245C3.39467 13.6883 3.59733 14.005 3.876 14.195C4.16733 14.385 4.56633 14.48 5.073 14.48C5.61767 14.48 6.023 14.3597 6.289 14.119C6.555 13.8783 6.71967 13.549 6.783 13.131C6.859 12.713 6.897 12.143 6.897 11.421V10.281H8.93V11.421C8.93 12.9537 8.63867 14.1317 8.056 14.955C7.486 15.7657 6.48533 16.171 5.054 16.171ZM13.7303 16.152C13.3123 16.152 12.9323 16.0317 12.5903 15.791C12.261 15.5503 12.0013 15.2337 11.8113 14.841C11.6213 14.4483 11.5263 14.0367 11.5263 13.606C11.5263 12.7447 11.71 12.048 12.0773 11.516C12.4447 10.9713 12.9133 10.5407 13.4833 10.224C14.0533 9.90733 14.845 9.54633 15.8583 9.141V8.362C15.8583 7.64 15.7823 7.13333 15.6303 6.842C15.491 6.538 15.1997 6.386 14.7563 6.386C13.9837 6.386 13.5973 6.90533 13.5973 7.944V8.495L11.5833 8.419C11.6087 7.203 11.8873 6.31 12.4193 5.74C12.9513 5.15733 13.7747 4.866 14.8893 4.866C15.9407 4.866 16.7007 5.15733 17.1693 5.74C17.6507 6.31 17.8913 7.17767 17.8913 8.343V13.359C17.8913 14.1823 17.9547 15.0627 18.0813 16H16.2193C16.08 15.278 15.9913 14.7397 15.9533 14.385C15.8013 14.879 15.5353 15.297 15.1553 15.639C14.788 15.981 14.313 16.152 13.7303 16.152ZM14.5283 14.404C14.7943 14.404 15.054 14.3027 15.3073 14.1C15.5607 13.8847 15.7443 13.682 15.8583 13.492V10.376C15.3137 10.68 14.8893 10.946 14.5853 11.174C14.294 11.3893 14.047 11.6427 13.8443 11.934C13.6543 12.2253 13.5593 12.5737 13.5593 12.979C13.5593 13.435 13.6417 13.7897 13.8063 14.043C13.971 14.2837 14.2117 14.404 14.5283 14.404ZM23.3402 16.152C22.4535 16.152 21.7315 15.8733 21.1742 15.316C20.6295 14.7587 20.3192 14.0113 20.2432 13.074L21.9342 12.561C22.0355 13.2703 22.2065 13.796 22.4472 14.138C22.7005 14.48 23.0552 14.651 23.5112 14.651C23.8658 14.651 24.1382 14.5497 24.3282 14.347C24.5308 14.1317 24.6322 13.8467 24.6322 13.492C24.6322 13.1753 24.5625 12.8903 24.4232 12.637C24.2838 12.3837 24.0558 12.124 23.7392 11.858L21.8582 10.243C21.4275 9.87567 21.0918 9.48933 20.8512 9.084C20.6232 8.666 20.5092 8.15933 20.5092 7.564C20.5092 6.71533 20.7625 6.05667 21.2692 5.588C21.7758 5.10667 22.4662 4.866 23.3402 4.866C24.1762 4.866 24.8285 5.13833 25.2972 5.683C25.7785 6.215 26.0572 6.90533 26.1332 7.754L24.7652 8.267C24.6765 7.64633 24.5308 7.17767 24.3282 6.861C24.1255 6.53167 23.8215 6.367 23.4162 6.367C23.0868 6.367 22.8208 6.47467 22.6182 6.69C22.4282 6.90533 22.3332 7.17133 22.3332 7.488C22.3332 7.89333 22.5168 8.26067 22.8842 8.59L24.8222 10.376C25.3162 10.832 25.6962 11.2817 25.9622 11.725C26.2408 12.1683 26.3802 12.7067 26.3802 13.34C26.3802 14.252 26.1078 14.9487 25.5632 15.43C25.0185 15.9113 24.2775 16.152 23.3402 16.152ZM31.7766 16.152C30.1933 16.152 29.4016 15.278 29.4016 13.53V6.367H28.2426V5.018H29.4016V1.807H31.4346V5.018H33.2016V6.367H31.4346V13.397C31.4346 13.8403 31.5043 14.1507 31.6436 14.328C31.7829 14.5053 32.0489 14.594 32.4416 14.594C32.6949 14.594 32.9419 14.575 33.1826 14.537V16.038C32.6759 16.114 32.2073 16.152 31.7766 16.152ZM35.8163 0.609999H39.6353C40.9653 0.609999 41.928 0.970999 42.5233 1.693C43.1313 2.415 43.4353 3.47267 43.4353 4.866C43.4353 6.12 43.1123 7.09533 42.4663 7.792C41.8203 8.48867 40.883 8.837 39.6543 8.837H37.9633V16H35.8163V0.609999ZM38.9513 7.298C39.5847 7.298 40.0723 7.22833 40.4143 7.089C40.769 6.94967 41.0223 6.709 41.1743 6.367C41.3263 6.025 41.4023 5.531 41.4023 4.885C41.4023 4.09967 41.3453 3.52333 41.2313 3.156C41.1173 2.78867 40.8893 2.529 40.5473 2.377C40.218 2.225 39.6923 2.149 38.9703 2.149H37.9633V7.298H38.9513ZM45.7812 5.018H47.8142V6.576C48.1942 5.95533 48.5806 5.51833 48.9732 5.265C49.3786 5.01167 49.8029 4.885 50.2462 4.885C50.3602 4.885 50.4679 4.89133 50.5692 4.904V7.146C50.1639 6.994 49.7902 6.918 49.4482 6.918C49.1189 6.918 48.8212 7.00033 48.5552 7.165C48.3019 7.317 48.0549 7.58933 47.8142 7.982V16H45.7812V5.018ZM55.8187 16.152C54.9701 16.152 54.3114 15.9937 53.8427 15.677C53.3741 15.3477 53.0447 14.8663 52.8547 14.233C52.6647 13.5997 52.5697 12.7763 52.5697 11.763V9.255C52.5697 7.735 52.8041 6.62667 53.2727 5.93C53.7541 5.22067 54.6027 4.866 55.8187 4.866C56.7054 4.866 57.3704 5.04967 57.8137 5.417C58.2697 5.78433 58.5674 6.30367 58.7067 6.975C58.8587 7.63367 58.9347 8.52667 58.9347 9.654V10.547H54.6027V12.751C54.6027 13.4223 54.6977 13.91 54.8877 14.214C55.0904 14.5053 55.4071 14.651 55.8377 14.651C56.2684 14.651 56.5597 14.5053 56.7117 14.214C56.8637 13.91 56.9397 13.454 56.9397 12.846V12.181H58.9157V12.599C58.9157 13.7517 58.6687 14.632 58.1747 15.24C57.6807 15.848 56.8954 16.152 55.8187 16.152ZM56.9397 9.445V8.457C56.9397 7.70967 56.8637 7.17767 56.7117 6.861C56.5724 6.53167 56.2684 6.367 55.7997 6.367C55.4704 6.367 55.2171 6.443 55.0397 6.595C54.8751 6.747 54.7611 7.00033 54.6977 7.355C54.6344 7.697 54.6027 8.19733 54.6027 8.856V9.445H56.9397ZM64.2718 16.152C63.3851 16.152 62.6631 15.8733 62.1058 15.316C61.5611 14.7587 61.2508 14.0113 61.1748 13.074L62.8658 12.561C62.9671 13.2703 63.1381 13.796 63.3788 14.138C63.6321 14.48 63.9868 14.651 64.4428 14.651C64.7975 14.651 65.0698 14.5497 65.2598 14.347C65.4625 14.1317 65.5638 13.8467 65.5638 13.492C65.5638 13.1753 65.4941 12.8903 65.3548 12.637C65.2155 12.3837 64.9875 12.124 64.6708 11.858L62.7898 10.243C62.3591 9.87567 62.0235 9.48933 61.7828 9.084C61.5548 8.666 61.4408 8.15933 61.4408 7.564C61.4408 6.71533 61.6941 6.05667 62.2008 5.588C62.7075 5.10667 63.3978 4.866 64.2718 4.866C65.1078 4.866 65.7601 5.13833 66.2288 5.683C66.7101 6.215 66.9888 6.90533 67.0648 7.754L65.6968 8.267C65.6081 7.64633 65.4625 7.17767 65.2598 6.861C65.0571 6.53167 64.7531 6.367 64.3478 6.367C64.0185 6.367 63.7525 6.47467 63.5498 6.69C63.3598 6.90533 63.2648 7.17133 63.2648 7.488C63.2648 7.89333 63.4485 8.26067 63.8158 8.59L65.7538 10.376C66.2478 10.832 66.6278 11.2817 66.8938 11.725C67.1725 12.1683 67.3118 12.7067 67.3118 13.34C67.3118 14.252 67.0395 14.9487 66.4948 15.43C65.9501 15.9113 65.2091 16.152 64.2718 16.152ZM72.3282 16.152C71.4416 16.152 70.7196 15.8733 70.1622 15.316C69.6176 14.7587 69.3072 14.0113 69.2312 13.074L70.9222 12.561C71.0236 13.2703 71.1946 13.796 71.4352 14.138C71.6886 14.48 72.0432 14.651 72.4992 14.651C72.8539 14.651 73.1262 14.5497 73.3162 14.347C73.5189 14.1317 73.6202 13.8467 73.6202 13.492C73.6202 13.1753 73.5506 12.8903 73.4112 12.637C73.2719 12.3837 73.0439 12.124 72.7272 11.858L70.8462 10.243C70.4156 9.87567 70.0799 9.48933 69.8392 9.084C69.6112 8.666 69.4972 8.15933 69.4972 7.564C69.4972 6.71533 69.7506 6.05667 70.2572 5.588C70.7639 5.10667 71.4542 4.866 72.3282 4.866C73.1642 4.866 73.8166 5.13833 74.2852 5.683C74.7666 6.215 75.0452 6.90533 75.1212 7.754L73.7532 8.267C73.6646 7.64633 73.5189 7.17767 73.3162 6.861C73.1136 6.53167 72.8096 6.367 72.4042 6.367C72.0749 6.367 71.8089 6.47467 71.6062 6.69C71.4162 6.90533 71.3212 7.17133 71.3212 7.488C71.3212 7.89333 71.5049 8.26067 71.8722 8.59L73.8102 10.376C74.3042 10.832 74.6842 11.2817 74.9502 11.725C75.2289 12.1683 75.3682 12.7067 75.3682 13.34C75.3682 14.252 75.0959 14.9487 74.5512 15.43C74.0066 15.9113 73.2656 16.152 72.3282 16.152ZM77.7437 13.739H79.7767V16H77.7437V13.739Z" fill="#222222"/>
</svg>
